<svg width="494" height="284" viewBox="0 0 494 284" fill="none" xmlns="http://www.w3.org/2000/svg">
<g clip-path="url(#clip0_98_137)">
<path d="M247 284C383.414 284 494 277.647 494 269.81C494 261.973 383.414 255.62 247 255.62C110.586 255.62 0 261.973 0 269.81C0 277.647 110.586 284 247 284Z" fill="#F2F2F2"/>
<path d="M78.9285 186.503L78.6655 186.728V266.275H449.73V126.548L445.308 126.883L78.9285 186.503Z" fill="#5FBAB0"/>
<path d="M420.377 194.75H316.757V198.923H420.377V194.75Z" fill="black"/>
<path d="M420.377 203.932H316.757V208.105H420.377V203.932Z" fill="white"/>
<path d="M351.855 213.114H316.757V217.287H351.855V213.114Z" fill="white"/>
<path d="M252.378 262.427C254.629 262.427 256.454 260.604 256.454 258.356C256.454 256.107 254.629 254.284 252.378 254.284C250.126 254.284 248.302 256.107 248.302 258.356C248.302 260.604 250.126 262.427 252.378 262.427Z" fill="#F2F2F2"/>
<path d="M264.198 262.834C266.449 262.834 268.274 261.011 268.274 258.763C268.274 256.514 266.449 254.691 264.198 254.691C261.947 254.691 260.122 256.514 260.122 258.763C260.122 261.011 261.947 262.834 264.198 262.834Z" fill="#F2F2F2"/>
<path d="M276.018 263.241C278.269 263.241 280.094 261.419 280.094 259.17C280.094 256.921 278.269 255.098 276.018 255.098C273.767 255.098 271.942 256.921 271.942 259.17C271.942 261.419 273.767 263.241 276.018 263.241Z" fill="#F2F2F2"/>
<path d="M264.235 262.02C266.036 262.02 267.496 260.562 267.496 258.763C267.496 256.964 266.036 255.506 264.235 255.506C262.434 255.506 260.974 256.964 260.974 258.763C260.974 260.562 262.434 262.02 264.235 262.02Z" fill="#1E1E1E"/>
<path d="M141.097 142H106V149.999H141.097V142Z" fill="#3F3D56"/>
<path opacity="0.3" d="M124.278 167.503C137.687 167.503 148.557 156.645 148.557 143.252C148.557 129.858 137.687 119 124.278 119C110.87 119 100 129.858 100 143.252C100 156.645 110.87 167.503 124.278 167.503Z" fill="#5FBAB0"/>
<path opacity="0.3" d="M124.278 159.419C133.218 159.419 140.464 152.181 140.464 143.252C140.464 134.322 133.218 127.084 124.278 127.084C115.339 127.084 108.093 134.322 108.093 143.252C108.093 152.181 115.339 159.419 124.278 159.419Z" fill="#5FBAB0"/>
<path d="M124.278 154.479C130.486 154.479 135.519 149.452 135.519 143.252C135.519 137.051 130.486 132.024 124.278 132.024C118.071 132.024 113.038 137.051 113.038 143.252C113.038 149.452 118.071 154.479 124.278 154.479Z" fill="#5FBAB0"/>
<path opacity="0.3" d="M401.278 85.5032C414.687 85.5032 425.557 74.6454 425.557 61.2516C425.557 47.8578 414.687 37 401.278 37C387.87 37 377 47.8578 377 61.2516C377 74.6454 387.87 85.5032 401.278 85.5032Z" fill="#5FBAB0"/>
<path opacity="0.3" d="M401.278 77.4193C410.218 77.4193 417.464 70.1808 417.464 61.2516C417.464 52.3224 410.218 45.0839 401.278 45.0839C392.339 45.0839 385.093 52.3224 385.093 61.2516C385.093 70.1808 392.339 77.4193 401.278 77.4193Z" fill="#5FBAB0"/>
<path d="M401.279 72.4792C407.486 72.4792 412.519 67.4524 412.519 61.2516C412.519 55.0508 407.486 50.024 401.279 50.024C395.071 50.024 390.039 55.0508 390.039 61.2516C390.039 67.4524 395.071 72.4792 401.279 72.4792Z" fill="#5FBAB0"/>
<path d="M383.327 234.887H348.23V242.886H383.327V234.887Z" fill="white"/>
<path opacity="0.3" d="M366.278 263.503C379.687 263.503 390.557 252.645 390.557 239.252C390.557 225.858 379.687 215 366.278 215C352.87 215 342 225.858 342 239.252C342 252.645 352.87 263.503 366.278 263.503Z" fill="#1E1E1E"/>
<path opacity="0.3" d="M366.279 255.419C375.218 255.419 382.464 248.181 382.464 239.252C382.464 230.322 375.218 223.084 366.279 223.084C357.339 223.084 350.093 230.322 350.093 239.252C350.093 248.181 357.339 255.419 366.279 255.419Z" fill="#1E1E1E"/>
<path d="M366.278 250.479C372.486 250.479 377.519 245.452 377.519 239.252C377.519 233.051 372.486 228.024 366.278 228.024C360.071 228.024 355.038 233.051 355.038 239.252C355.038 245.452 360.071 250.479 366.278 250.479Z" fill="#1E1E1E"/>
<path d="M40.4292 49.1145L50.4219 49.5016L50.9201 36.6681L40.9274 36.281L40.4292 49.1145Z" fill="white"/>
<path d="M86.0043 81.2268C86.0043 81.2268 99.8425 74.6224 99.6211 80.3262C99.3997 86.0299 85.6721 89.7825 85.6721 89.7825L86.0043 81.2268Z" fill="#AA7545"/>
<path d="M78.4121 129.488C78.4121 129.488 84.9408 145.45 87.353 156.968C89.7652 168.486 93.4388 184.337 88.7134 195.579C83.988 206.821 70.5531 239.86 70.4148 243.425C70.2764 246.99 71.5655 250.61 68.7104 250.499C65.8554 250.389 50.3187 245.503 49.688 243.336C49.0572 241.17 54.9888 235.687 54.9888 235.687L69.6356 189.842L54.3538 159.974L43.3312 204.532L41.1723 260.143C41.1723 260.143 30.5766 256.877 29.0383 259.673C29.0383 259.673 24.2911 253.063 23.688 250.184C23.085 247.304 25.93 192.433 25.93 192.433C25.93 192.433 16.204 129.934 24.0554 130.238C31.9068 130.543 62.6598 111.74 78.4121 129.488Z" fill="#2F2E41"/>
<path d="M68.8211 247.648C68.8211 247.648 76.0635 263.637 76.7496 264.378C77.4357 265.118 82.1553 272.442 78.5865 272.303C75.0176 272.165 66.5909 268.268 60.3884 262.316C54.186 256.363 46.0084 246.05 46.7498 245.365C47.4912 244.679 52.5706 242.734 52.5706 242.734L68.8211 247.648Z" fill="#2F2E41"/>
<path d="M39.8831 256.523C39.8831 256.523 40.3201 263.681 41.6369 266.588C42.9537 269.495 42.7876 273.773 39.2188 273.635C35.65 273.496 26.4265 271.711 26.4265 271.711C26.4265 271.711 25.8788 267.405 26.6202 266.72C27.3617 266.035 30.5212 258.303 29.1767 256.109C27.8322 253.914 39.8831 256.523 39.8831 256.523Z" fill="#2F2E41"/>
<path d="M34.6033 24.2544C34.6033 24.2544 26.9952 36.0984 24.0294 38.8397C21.0636 41.581 29.4074 47.6165 29.4074 47.6165L44.341 49.6231C44.341 49.6231 44.1531 36.049 44.9223 34.6507C45.6914 33.2524 34.6033 24.2544 34.6033 24.2544Z" fill="#AA7545"/>
<path d="M47.5836 39.7521C47.5836 39.7521 44.5071 45.3453 41.6521 45.2347C38.797 45.1241 24.0295 38.8397 23.3987 36.6731C22.768 34.5066 18.5072 52.1926 18.5072 52.1926L54.6424 115.714L63.4567 109.629L59.1858 72.3335L55.6783 52.2044L47.5836 39.7521Z" fill="white"/>
<path d="M22.0658 96.6012C23.5072 99.6132 24.4075 102.754 24.2826 105.97C24.2771 106.112 24.2716 106.255 24.2589 106.397C23.9169 112.996 21.4833 120.628 20.6102 126.178C19.9767 130.159 20.157 133.065 22.4894 133.748C28.1442 135.395 21.6649 136.572 43.5425 143.846C65.42 151.12 69.2379 144.841 69.2933 143.415C69.3486 141.989 66.195 131.157 66.9364 130.471C67.6779 129.786 77.3107 139.442 80.2211 138.126C83.1315 136.811 80.5533 129.571 80.5533 129.571C80.5533 129.571 73.9969 114.322 74.1353 110.757C74.2737 107.192 64.2038 90.379 64.2038 90.379L57.3547 45.8429C57.3547 45.8429 54.7211 40.0286 51.18 39.1773C47.6389 38.3261 44.7008 40.3544 44.7008 40.3544L50.6265 53.4368L56.8784 76.5284L55.8325 85.0564C55.8325 85.0564 48.5623 69.7799 43.7874 63.8825C39.0125 57.9852 28.832 44.0241 28.832 44.0241C28.832 44.0241 26.4552 36.0132 28.2494 33.6192C30.0439 31.2182 20.765 30.8588 16.8087 40.7021C14.7118 45.9191 11.3075 53.6989 9.17482 60.9424C7.27443 67.3594 6.37675 73.3583 8.25948 76.7872C11.137 82.0255 18.3755 88.9108 22.0658 96.6012Z" fill="#5FBAB0"/>
<path opacity="0.1" d="M8.25948 76.7872C11.1371 82.0255 18.3755 88.9108 22.0658 96.6012C23.0296 93.1326 24.2055 89.5437 24.2055 89.5437C24.2055 89.5437 28.7154 65.4409 15.3753 59.2118C13.1649 58.9983 10.9543 59.6153 9.17482 60.9424C7.27443 67.3594 6.37675 73.3583 8.25948 76.7872Z" fill="black"/>
<path d="M61.2164 75.2683L72.5259 78.5626L88.2287 79.1708L89.8441 92.8002L64.0379 94.6568C64.0379 94.6568 57.5922 76.556 61.2164 75.2683Z" fill="#5FBAB0"/>
<path d="M42.7747 121.095C42.7747 121.095 57.9045 123.602 54.4513 128.15C50.9981 132.698 37.5948 127.917 37.5948 127.917L42.7747 121.095Z" fill="#AA7545"/>
<path opacity="0.1" d="M24.2589 106.397C23.9169 112.996 21.4833 120.628 20.6102 126.178C25.43 130.734 30.0134 134.753 31.7407 134.82C35.3095 134.959 41.0473 134.467 43.1609 135.263C45.2745 136.059 46.5141 122.54 46.5141 122.54C46.5141 122.54 45.2527 118.207 39.6256 115.847C35.8275 114.25 28.547 109.919 24.2589 106.397Z" fill="black"/>
<path d="M15.5414 54.9339C15.5414 54.9339 3.46283 53.038 4.11536 73.0565C4.76789 93.075 2.84216 105.853 7.7001 109.612C12.5581 113.37 28.338 130.404 31.9068 130.543C35.4756 130.681 41.2134 130.189 43.327 130.985C45.4406 131.781 46.6803 118.262 46.6803 118.262C46.6803 118.262 45.4188 113.929 39.7917 111.569C34.1647 109.209 20.9077 100.841 21.0184 97.9887C21.1291 95.1368 24.3716 85.2658 24.3716 85.2658C24.3716 85.2658 28.8815 61.163 15.5414 54.9339Z" fill="#5FBAB0"/>
<path d="M45.2544 41.7922C53.9333 41.7922 60.969 34.7643 60.969 26.095C60.969 17.4257 53.9333 10.3978 45.2544 10.3978C36.5755 10.3978 29.5398 17.4257 29.5398 26.095C29.5398 34.7643 36.5755 41.7922 45.2544 41.7922Z" fill="#AA7545"/>
<path d="M55.8354 3.59639C56.2144 3.9226 56.6684 4.15013 57.1567 4.25872C57.4019 4.30238 57.6544 4.24738 57.8591 4.10573C58.0638 3.96408 58.2041 3.74729 58.2494 3.50267C58.6089 4.24747 59.0146 5.04128 59.7486 5.42345C60.4827 5.80561 61.6178 5.48515 61.7236 4.66507C61.8307 5.28774 62.1065 5.86922 62.521 6.34647C62.9765 6.78024 63.8024 6.88972 64.2 6.40254C63.8785 8.15739 64.0769 9.96207 63.976 11.7432C63.875 13.5243 63.3996 15.4126 62.0524 16.5838C60.0877 18.2919 57.1332 17.8704 54.5488 17.5467C54.158 17.4648 53.7525 17.487 53.373 17.611C52.4053 18.0228 52.4492 19.3684 52.4361 20.419C52.3572 22.2624 51.6268 24.0182 50.3747 25.3746C49.1225 26.731 47.4297 27.6003 45.5967 27.8281C44.5709 27.9862 43.5242 27.7311 42.6867 27.1187C41.9529 26.4974 41.5781 25.4848 40.7373 25.0181C39.3695 24.2589 37.7108 25.3661 36.7108 26.5682C35.7108 27.7703 34.7252 29.2491 33.1761 29.4691C31.1273 29.7601 29.5669 27.6745 28.8013 25.7541C27.745 23.0624 27.239 20.1867 27.313 17.2966C27.387 14.4065 28.0396 11.5604 29.2322 8.92623C33.5101 -0.388664 48.1236 -1.862 55.8354 3.59639Z" fill="#2F2E41"/>
<path d="M433.066 253.191C438.601 262.619 449.763 266.351 449.763 266.351C449.763 266.351 451.952 254.799 446.418 245.371C440.883 235.943 429.721 232.21 429.721 232.21C429.721 232.21 427.532 243.763 433.066 253.191Z" fill="#F2F2F2"/>
<path d="M436.52 249.901C446.091 255.196 450.101 266.25 450.101 266.25C450.101 266.25 438.592 268.72 429.021 263.425C419.45 258.13 415.44 247.075 415.44 247.075C415.44 247.075 426.949 244.605 436.52 249.901Z" fill="#1E1E1E"/>
</g>
<defs>
<clipPath id="clip0_98_137">
<rect width="494" height="284" fill="white"/>
</clipPath>
</defs>
</svg>
